<svg width="82" height="14" viewBox="0 0 82 14" fill="none" xmlns="http://www.w3.org/2000/svg">
<path fill-rule="evenodd" clip-rule="evenodd" d="M81.5093 4.56764C81.6614 4.68885 81.7745 4.85211 81.8345 5.03711C81.8957 5.22286 81.9005 5.42255 81.8485 5.61106C81.7965 5.79956 81.6898 5.96847 81.542 6.09653L78.9706 8.34029C78.9029 8.39931 78.8526 8.47558 78.8249 8.56097C78.7972 8.64636 78.7933 8.73766 78.8134 8.82513L79.5838 12.1665C79.6282 12.3563 79.6156 12.5551 79.5476 12.7378C79.4796 12.9205 79.3593 13.0792 79.2016 13.1939C79.044 13.3086 78.856 13.3742 78.6612 13.3827C78.4664 13.3911 78.2735 13.3419 78.1065 13.2413L75.1964 11.4764C75.1189 11.4294 75.03 11.4046 74.9394 11.4046C74.8488 11.4046 74.7598 11.4294 74.6823 11.4764L71.7792 13.2413C71.6123 13.3419 71.4194 13.391 71.2247 13.3826C71.03 13.3742 70.842 13.3085 70.6844 13.1939C70.5268 13.0793 70.4064 12.9207 70.3384 12.7381C70.2704 12.5554 70.2577 12.3568 70.3019 12.167L71.0728 8.8286C71.093 8.74118 71.0891 8.6499 71.0615 8.56452C71.0339 8.47913 70.9837 8.40283 70.9161 8.34376L68.3442 6.09653C68.1963 5.96902 68.0893 5.80066 68.0367 5.61258C67.984 5.42449 67.9881 5.22506 68.0485 5.0393C68.1088 4.85354 68.2226 4.68973 68.3757 4.56842C68.5287 4.44712 68.7142 4.37372 68.9088 4.35744L72.2948 4.06445C72.3849 4.05664 72.4712 4.02433 72.5442 3.97103C72.6173 3.91773 72.6743 3.84546 72.7093 3.76204L74.0314 0.607591C74.1066 0.427629 74.2333 0.273918 74.3956 0.165803C74.5579 0.0576875 74.7486 0 74.9436 0C75.1386 0 75.3293 0.0576875 75.4916 0.165803C75.6539 0.273918 75.7806 0.427629 75.8558 0.607591L77.1824 3.76254C77.2175 3.84577 77.2746 3.91783 77.3477 3.97095C77.4207 4.02407 77.5069 4.05623 77.5969 4.06396L80.9789 4.35546C81.1727 4.37261 81.3571 4.4464 81.5093 4.56764Z" fill="white"/>
<path fill-rule="evenodd" clip-rule="evenodd" d="M64.5093 4.56764C64.6614 4.68885 64.7745 4.85211 64.8345 5.03711C64.8957 5.22286 64.9005 5.42255 64.8485 5.61106C64.7965 5.79956 64.6898 5.96847 64.542 6.09653L61.9706 8.34029C61.9029 8.39931 61.8526 8.47558 61.8249 8.56097C61.7972 8.64636 61.7933 8.73766 61.8134 8.82513L62.5838 12.1665C62.6282 12.3563 62.6156 12.5551 62.5476 12.7378C62.4796 12.9205 62.3593 13.0792 62.2016 13.1939C62.044 13.3086 61.856 13.3742 61.6612 13.3827C61.4664 13.3911 61.2735 13.3419 61.1065 13.2413L58.1964 11.4764C58.1189 11.4294 58.03 11.4046 57.9394 11.4046C57.8488 11.4046 57.7598 11.4294 57.6823 11.4764L54.7792 13.2413C54.6123 13.3419 54.4194 13.391 54.2247 13.3826C54.03 13.3742 53.842 13.3085 53.6844 13.1939C53.5268 13.0793 53.4064 12.9207 53.3384 12.7381C53.2704 12.5554 53.2577 12.3568 53.3019 12.167L54.0728 8.8286C54.093 8.74118 54.0891 8.6499 54.0615 8.56452C54.0339 8.47913 53.9837 8.40283 53.9161 8.34376L51.3442 6.09653C51.1963 5.96902 51.0893 5.80066 51.0367 5.61258C50.984 5.42449 50.9881 5.22506 51.0485 5.0393C51.1088 4.85354 51.2226 4.68973 51.3757 4.56842C51.5287 4.44712 51.7142 4.37372 51.9088 4.35744L55.2948 4.06445C55.3849 4.05664 55.4712 4.02433 55.5442 3.97103C55.6173 3.91773 55.6743 3.84546 55.7093 3.76204L57.0314 0.607591C57.1066 0.427629 57.2333 0.273918 57.3956 0.165803C57.5579 0.0576875 57.7486 0 57.9436 0C58.1386 0 58.3293 0.0576875 58.4916 0.165803C58.6539 0.273918 58.7806 0.427629 58.8558 0.607591L60.1824 3.76254C60.2175 3.84577 60.2746 3.91783 60.3477 3.97095C60.4207 4.02407 60.5069 4.05623 60.5969 4.06396L63.9789 4.35546C64.1727 4.37261 64.3571 4.4464 64.5093 4.56764Z" fill="white"/>
<path fill-rule="evenodd" clip-rule="evenodd" d="M47.5093 4.56764C47.6614 4.68885 47.7745 4.85211 47.8345 5.03711C47.8957 5.22286 47.9005 5.42255 47.8485 5.61106C47.7965 5.79956 47.6898 5.96847 47.542 6.09653L44.9706 8.34029C44.9029 8.39931 44.8526 8.47558 44.8249 8.56097C44.7972 8.64636 44.7933 8.73766 44.8134 8.82513L45.5838 12.1665C45.6282 12.3563 45.6156 12.5551 45.5476 12.7378C45.4796 12.9205 45.3593 13.0792 45.2016 13.1939C45.044 13.3086 44.856 13.3742 44.6612 13.3827C44.4664 13.3911 44.2735 13.3419 44.1065 13.2413L41.1964 11.4764C41.1189 11.4294 41.03 11.4046 40.9394 11.4046C40.8488 11.4046 40.7598 11.4294 40.6823 11.4764L37.7792 13.2413C37.6123 13.3419 37.4194 13.391 37.2247 13.3826C37.03 13.3742 36.842 13.3085 36.6844 13.1939C36.5268 13.0793 36.4064 12.9207 36.3384 12.7381C36.2704 12.5554 36.2577 12.3568 36.3019 12.167L37.0728 8.8286C37.093 8.74118 37.0891 8.6499 37.0615 8.56452C37.0339 8.47913 36.9837 8.40283 36.9161 8.34376L34.3442 6.09653C34.1963 5.96902 34.0893 5.80066 34.0367 5.61258C33.984 5.42449 33.9881 5.22506 34.0485 5.0393C34.1088 4.85354 34.2226 4.68973 34.3757 4.56842C34.5287 4.44712 34.7142 4.37372 34.9088 4.35744L38.2948 4.06445C38.3849 4.05664 38.4712 4.02433 38.5442 3.97103C38.6173 3.91773 38.6743 3.84546 38.7093 3.76204L40.0314 0.607591C40.1066 0.427629 40.2333 0.273918 40.3956 0.165803C40.5579 0.0576875 40.7486 0 40.9436 0C41.1386 0 41.3293 0.0576875 41.4916 0.165803C41.6539 0.273918 41.7806 0.427629 41.8558 0.607591L43.1824 3.76254C43.2175 3.84577 43.2746 3.91783 43.3477 3.97095C43.4207 4.02407 43.5069 4.05623 43.5969 4.06396L46.9789 4.35546C47.1727 4.37261 47.3571 4.4464 47.5093 4.56764ZM40.9436 0.998242L40.9446 0.998738V0.997746L40.9436 0.998242Z" fill="white"/>
<path fill-rule="evenodd" clip-rule="evenodd" d="M30.5093 4.56764C30.6614 4.68885 30.7745 4.85211 30.8345 5.03711C30.8957 5.22286 30.9005 5.42255 30.8485 5.61106C30.7965 5.79956 30.6898 5.96847 30.542 6.09653L27.9706 8.34029C27.9029 8.39931 27.8526 8.47558 27.8249 8.56097C27.7972 8.64636 27.7933 8.73766 27.8134 8.82513L28.5838 12.1665C28.6282 12.3563 28.6156 12.5551 28.5476 12.7378C28.4796 12.9205 28.3593 13.0792 28.2016 13.1939C28.044 13.3086 27.856 13.3742 27.6612 13.3827C27.4664 13.3911 27.2735 13.3419 27.1065 13.2413L24.1964 11.4764C24.1189 11.4294 24.03 11.4046 23.9394 11.4046C23.8488 11.4046 23.7598 11.4294 23.6823 11.4764L20.7792 13.2413C20.6123 13.3419 20.4194 13.391 20.2247 13.3826C20.03 13.3742 19.842 13.3085 19.6844 13.1939C19.5268 13.0793 19.4064 12.9207 19.3384 12.7381C19.2704 12.5554 19.2577 12.3568 19.3019 12.167L20.0728 8.8286C20.093 8.74118 20.0891 8.6499 20.0615 8.56452C20.0339 8.47913 19.9837 8.40283 19.9161 8.34376L17.3442 6.09653C17.1963 5.96902 17.0893 5.80066 17.0367 5.61258C16.984 5.42449 16.9881 5.22506 17.0485 5.0393C17.1088 4.85354 17.2226 4.68973 17.3757 4.56842C17.5287 4.44712 17.7142 4.37372 17.9088 4.35744L21.2948 4.06445C21.3849 4.05664 21.4712 4.02433 21.5442 3.97103C21.6173 3.91773 21.6743 3.84546 21.7093 3.76204L23.0314 0.607591C23.1066 0.427629 23.2333 0.273918 23.3956 0.165803C23.5579 0.0576875 23.7486 0 23.9436 0C24.1386 0 24.3293 0.0576875 24.4916 0.165803C24.6539 0.273918 24.7806 0.427629 24.8558 0.607591L26.1824 3.76254C26.2175 3.84577 26.2746 3.91783 26.3477 3.97095C26.4207 4.02407 26.5069 4.05623 26.5969 4.06396L29.9789 4.35546C30.1727 4.37261 30.3571 4.4464 30.5093 4.56764Z" fill="white"/>
<path fill-rule="evenodd" clip-rule="evenodd" d="M13.5093 4.70906C13.6614 4.83026 13.7745 4.99353 13.8345 5.17853C13.8957 5.36428 13.9005 5.56397 13.8485 5.75247C13.7965 5.94098 13.6898 6.10989 13.542 6.23795L10.9706 8.48171C10.9029 8.54073 10.8526 8.617 10.8249 8.70239C10.7972 8.78778 10.7933 8.87908 10.8134 8.96655L11.5838 12.3079C11.6282 12.4978 11.6156 12.6965 11.5476 12.8792C11.4796 13.062 11.3593 13.2206 11.2016 13.3353C11.044 13.45 10.856 13.5157 10.6612 13.5241C10.4664 13.5325 10.2735 13.4833 10.1065 13.3827L7.19644 11.6178C7.11894 11.5708 7.03003 11.546 6.93939 11.546C6.84875 11.546 6.75985 11.5708 6.68235 11.6178L3.77924 13.3827C3.6123 13.4833 3.41941 13.5324 3.22468 13.524C3.02996 13.5156 2.84204 13.45 2.6844 13.3353C2.52677 13.2207 2.40642 13.0622 2.33839 12.8795C2.27036 12.6969 2.25767 12.4982 2.30191 12.3084L3.0728 8.97002C3.09301 8.8826 3.08911 8.79132 3.06152 8.70594C3.03393 8.62055 2.98369 8.54425 2.91614 8.48518L0.344191 6.23795C0.196251 6.11044 0.0892629 5.94208 0.0366516 5.754C-0.0159597 5.56591 -0.0118508 5.36647 0.0484628 5.18072C0.108776 4.99496 0.222608 4.83115 0.375674 4.70984C0.528741 4.58854 0.714224 4.51514 0.908849 4.49886L4.29482 4.20587C4.38491 4.19806 4.47115 4.16575 4.5442 4.11245C4.61725 4.05915 4.67433 3.98688 4.70926 3.90346L6.03143 0.74901C6.10658 0.569047 6.23329 0.415336 6.3956 0.307221C6.55792 0.199106 6.74858 0.141418 6.94361 0.141418C7.13863 0.141418 7.3293 0.199106 7.49161 0.307221C7.65392 0.415336 7.78063 0.569047 7.85579 0.74901L9.18241 3.90396C9.21748 3.98719 9.27463 4.05925 9.34767 4.11237C9.42071 4.16549 9.50687 4.19765 9.59686 4.20537L12.9789 4.49688C13.1727 4.51403 13.3571 4.58782 13.5093 4.70906ZM6.94361 1.13966L6.9446 1.14016V1.13916L6.94361 1.13966Z" fill="white"/>
</svg>
