<svg width="64" height="64" viewBox="0 0 64 64" fill="none" xmlns="http://www.w3.org/2000/svg">
<circle cx="32" cy="32" r="32" fill="#E50914"/>
<path d="M4.09375 42.2398V21.7598H13.1129C14.9489 21.7598 16.5209 22.0684 17.829 22.6858C19.1601 23.2794 20.1928 24.1342 20.9272 25.2503C21.6616 26.3662 22.0288 27.7197 22.0288 29.3107C22.0288 30.8541 21.6616 32.1956 20.9272 33.3354C20.1928 34.4751 19.1601 35.3419 17.829 35.9355C16.5209 36.5291 14.9489 36.8259 13.1129 36.8259H7.08863L9.53273 34.3683V42.2398H4.09375ZM9.53273 35.0094L7.53614 32.4806H12.7342C13.9965 32.4806 14.9489 32.2075 15.5915 31.6614C16.234 31.0915 16.5554 30.3079 16.5554 29.3107C16.5554 28.2896 16.234 27.506 15.5915 26.9599C14.9489 26.4137 13.9965 26.1406 12.7342 26.1406H7.53614L9.53273 23.6118V35.0094ZM26.7353 37.6451L26.4254 31.3765L35.3069 21.7598H41.2967L32.6906 31.3052L29.6614 34.4751L26.7353 37.6451ZM21.8814 42.2398V21.7598H27.2516V42.2398H21.8814ZM35.4102 42.2398L28.6975 33.6916L32.2431 29.7737L41.7443 42.2398H35.4102ZM44.8928 37.6451L44.5829 31.3765L53.4644 21.7598H59.4542L50.8481 31.3052L47.8189 34.4751L44.8928 37.6451ZM40.0389 42.2398V21.7598H45.4092V42.2398H40.0389ZM53.5677 42.2398L46.855 33.6916L50.4006 29.7737L59.9018 42.2398H53.5677Z" fill="white"/>
</svg>
