<svg width="1000" height="505" viewBox="0 0 1000 505" fill="none" xmlns="http://www.w3.org/2000/svg">
<path d="M171.514 419.272V335.905H207.6C215.063 335.905 221.494 337.136 226.893 339.597C232.292 341.979 236.46 345.433 239.398 349.959C242.336 354.484 243.805 359.883 243.805 366.156C243.805 372.349 242.336 377.708 239.398 382.234C236.46 386.759 232.292 390.253 226.893 392.714C221.494 395.096 215.063 396.287 207.6 396.287H182.232L190.807 387.593V419.272H171.514ZM190.807 389.737L182.232 380.566H206.528C212.483 380.566 216.929 379.296 219.866 376.755C222.804 374.215 224.273 370.681 224.273 366.156C224.273 361.551 222.804 357.978 219.866 355.437C216.929 352.896 212.483 351.626 206.528 351.626H182.232L190.807 342.456V389.737ZM244.359 419.272V355.199H262.105V373.301L259.603 368.061C261.509 363.536 264.566 360.122 268.774 357.819C272.982 355.437 278.103 354.246 284.137 354.246V371.396C283.343 371.317 282.629 371.277 281.994 371.277C281.358 371.197 280.683 371.158 279.969 371.158C274.887 371.158 270.759 372.627 267.583 375.564C264.486 378.423 262.938 382.909 262.938 389.022V419.272H244.359ZM313.182 420.225C306.354 420.225 300.28 418.796 294.96 415.938C289.72 413.079 285.551 409.189 282.455 404.266C279.438 399.264 277.929 393.587 277.929 387.236C277.929 380.805 279.438 375.128 282.455 370.205C285.551 365.203 289.72 361.313 294.96 358.534C300.28 355.675 306.354 354.246 313.182 354.246C319.93 354.246 325.965 355.675 331.284 358.534C336.604 361.313 340.772 365.163 343.789 370.086C346.806 375.009 348.315 380.725 348.315 387.236C348.315 393.587 346.806 399.264 343.789 404.266C340.772 409.189 336.604 413.079 331.284 415.938C325.965 418.796 319.93 420.225 313.182 420.225ZM313.182 404.981C316.278 404.981 319.057 404.266 321.518 402.837C323.98 401.408 325.925 399.383 327.354 396.763C328.783 394.064 329.498 390.888 329.498 387.236C329.498 383.504 328.783 380.328 327.354 377.708C325.925 375.088 323.98 373.063 321.518 371.634C319.057 370.205 316.278 369.49 313.182 369.49C310.085 369.49 307.306 370.205 304.845 371.634C302.384 373.063 300.399 375.088 298.89 377.708C297.461 380.328 296.746 383.504 296.746 387.236C296.746 390.888 297.461 394.064 298.89 396.763C300.399 399.383 302.384 401.408 304.845 402.837C307.306 404.266 310.085 404.981 313.182 404.981ZM376.335 420.225C370.301 420.225 364.862 418.875 360.019 416.176C355.176 413.397 351.325 409.546 348.467 404.624C345.688 399.701 344.298 393.905 344.298 387.236C344.298 380.487 345.688 374.651 348.467 369.729C351.325 364.806 355.176 360.995 360.019 358.295C364.862 355.596 370.301 354.246 376.335 354.246C381.734 354.246 386.458 355.437 390.507 357.819C394.557 360.201 397.693 363.814 399.916 368.657C402.139 373.5 403.251 379.693 403.251 387.236C403.251 394.699 402.179 400.892 400.035 405.815C397.891 410.658 394.795 414.27 390.746 416.652C386.776 419.034 381.972 420.225 376.335 420.225ZM379.551 404.981C382.568 404.981 385.307 404.266 387.768 402.837C390.23 401.408 392.175 399.383 393.604 396.763C395.112 394.064 395.867 390.888 395.867 387.236C395.867 383.504 395.112 380.328 393.604 377.708C392.175 375.088 390.23 373.063 387.768 371.634C385.307 370.205 382.568 369.49 379.551 369.49C376.454 369.49 373.675 370.205 371.214 371.634C368.753 373.063 366.768 375.088 365.259 377.708C363.83 380.328 363.115 383.504 363.115 387.236C363.115 390.888 363.83 394.064 365.259 396.763C366.768 399.383 368.753 401.408 371.214 402.837C373.675 404.266 376.454 404.981 379.551 404.981ZM396.343 419.272V406.172L396.7 387.117L395.509 368.18V330.903H414.088V419.272H396.343ZM446.409 420.225C441.089 420.225 436.325 419.193 432.117 417.129C427.989 415.064 424.773 411.928 422.471 407.72C420.168 403.433 419.017 397.994 419.017 391.404V355.199H437.596V388.665C437.596 393.984 438.707 397.915 440.931 400.455C443.233 402.917 446.449 404.147 450.577 404.147C453.436 404.147 455.976 403.552 458.199 402.361C460.423 401.091 462.169 399.185 463.44 396.644C464.71 394.024 465.345 390.769 465.345 386.878V355.199H483.924V419.272H466.298V401.646L469.513 406.767C467.37 411.214 464.194 414.588 459.986 416.891C455.857 419.114 451.332 420.225 446.409 420.225ZM520.192 420.225C513.284 420.225 507.131 418.836 501.732 416.057C496.333 413.199 492.085 409.268 488.988 404.266C485.971 399.264 484.463 393.587 484.463 387.236C484.463 380.805 485.971 375.128 488.988 370.205C492.085 365.203 496.333 361.313 501.732 358.534C507.131 355.675 513.284 354.246 520.192 354.246C526.94 354.246 532.816 355.675 537.818 358.534C542.82 361.313 546.512 365.322 548.894 370.562L534.483 378.304C532.816 375.286 530.712 373.063 528.171 371.634C525.71 370.205 523.01 369.49 520.072 369.49C516.897 369.49 514.038 370.205 511.498 371.634C508.957 373.063 506.932 375.088 505.424 377.708C503.995 380.328 503.28 383.504 503.28 387.236C503.28 390.967 503.995 394.143 505.424 396.763C506.932 399.383 508.957 401.408 511.498 402.837C514.038 404.266 516.897 404.981 520.072 404.981C523.01 404.981 525.71 404.306 528.171 402.956C530.712 401.527 532.816 399.264 534.483 396.168L548.894 404.028C546.512 409.189 542.82 413.199 537.818 416.057C532.816 418.836 526.94 420.225 520.192 420.225ZM574.813 420.225C567.27 420.225 561.395 418.32 557.187 414.509C552.979 410.618 550.874 404.862 550.874 397.24V341.027H569.453V397.002C569.453 399.701 570.168 401.805 571.597 403.314C573.026 404.743 574.972 405.457 577.433 405.457C580.371 405.457 582.872 404.663 584.936 403.075L589.938 416.176C588.032 417.526 585.73 418.558 583.03 419.272C580.41 419.908 577.671 420.225 574.813 420.225ZM540.99 369.49V355.199H585.412V369.49H540.99ZM588.458 419.272V355.199H607.037V419.272H588.458ZM597.747 346.267C594.333 346.267 591.554 345.274 589.41 343.289C587.267 341.304 586.195 338.843 586.195 335.905C586.195 332.968 587.267 330.506 589.41 328.521C591.554 326.537 594.333 325.544 597.747 325.544C601.161 325.544 603.94 326.497 606.084 328.402C608.227 330.229 609.299 332.61 609.299 335.548C609.299 338.645 608.227 341.225 606.084 343.289C604.019 345.274 601.241 346.267 597.747 346.267ZM642.858 420.225C636.03 420.225 629.956 418.796 624.637 415.938C619.396 413.079 615.228 409.189 612.132 404.266C609.115 399.264 607.606 393.587 607.606 387.236C607.606 380.805 609.115 375.128 612.132 370.205C615.228 365.203 619.396 361.313 624.637 358.534C629.956 355.675 636.03 354.246 642.858 354.246C649.607 354.246 655.641 355.675 660.961 358.534C666.28 361.313 670.449 365.163 673.466 370.086C676.483 375.009 677.992 380.725 677.992 387.236C677.992 393.587 676.483 399.264 673.466 404.266C670.449 409.189 666.28 413.079 660.961 415.938C655.641 418.796 649.607 420.225 642.858 420.225ZM642.858 404.981C645.955 404.981 648.734 404.266 651.195 402.837C653.656 401.408 655.602 399.383 657.031 396.763C658.46 394.064 659.174 390.888 659.174 387.236C659.174 383.504 658.46 380.328 657.031 377.708C655.602 375.088 653.656 373.063 651.195 371.634C648.734 370.205 645.955 369.49 642.858 369.49C639.762 369.49 636.983 370.205 634.522 371.634C632.06 373.063 630.075 375.088 628.567 377.708C627.138 380.328 626.423 383.504 626.423 387.236C626.423 390.888 627.138 394.064 628.567 396.763C630.075 399.383 632.06 401.408 634.522 402.837C636.983 404.266 639.762 404.981 642.858 404.981ZM678.5 419.272V355.199H696.246V372.944L692.911 367.585C695.214 363.297 698.509 360.002 702.796 357.7C707.083 355.397 711.966 354.246 717.445 354.246C722.526 354.246 727.052 355.278 731.022 357.343C735.071 359.328 738.247 362.424 740.549 366.632C742.852 370.761 744.003 376.08 744.003 382.591V419.272H725.424V385.449C725.424 380.288 724.273 376.477 721.97 374.016C719.747 371.555 716.571 370.324 712.443 370.324C709.505 370.324 706.845 370.959 704.463 372.23C702.161 373.421 700.335 375.286 698.985 377.827C697.715 380.368 697.079 383.623 697.079 387.593V419.272H678.5ZM770.491 420.225C765.012 420.225 759.733 419.59 754.651 418.32C749.649 416.97 745.679 415.303 742.742 413.318L748.935 399.979C751.872 401.805 755.326 403.314 759.296 404.505C763.345 405.616 767.315 406.172 771.205 406.172C775.493 406.172 778.51 405.656 780.257 404.624C782.083 403.592 782.996 402.162 782.996 400.336C782.996 398.828 782.281 397.716 780.852 397.002C779.502 396.208 777.676 395.612 775.374 395.215C773.071 394.818 770.531 394.421 767.752 394.024C765.052 393.627 762.313 393.111 759.534 392.476C756.755 391.761 754.214 390.729 751.912 389.379C749.609 388.03 747.744 386.204 746.314 383.901C744.965 381.599 744.29 378.621 744.29 374.969C744.29 370.92 745.441 367.347 747.744 364.25C750.125 361.154 753.54 358.732 757.986 356.985C762.432 355.159 767.752 354.246 773.945 354.246C778.311 354.246 782.758 354.723 787.283 355.675C791.809 356.628 795.58 358.018 798.597 359.844L792.404 373.063C789.308 371.237 786.172 370.007 782.996 369.371C779.899 368.657 776.882 368.299 773.945 368.299C769.816 368.299 766.799 368.855 764.893 369.967C762.988 371.078 762.035 372.508 762.035 374.254C762.035 375.842 762.71 377.033 764.06 377.827C765.489 378.621 767.355 379.256 769.657 379.733C771.96 380.209 774.461 380.646 777.16 381.043C779.939 381.36 782.718 381.876 785.497 382.591C788.276 383.306 790.777 384.338 793 385.687C795.302 386.958 797.168 388.744 798.597 391.047C800.027 393.27 800.741 396.208 800.741 399.86C800.741 403.83 799.55 407.363 797.168 410.459C794.786 413.476 791.333 415.858 786.807 417.605C782.361 419.352 776.922 420.225 770.491 420.225Z" fill="white"/>
<path d="M171.258 324.04V98.459H274.044C294.968 98.459 312.883 101.859 327.791 108.659C342.961 115.197 354.73 124.613 363.1 136.906C371.469 149.198 375.654 164.106 375.654 181.63C375.654 198.63 371.469 213.407 363.1 225.961C354.73 238.515 342.961 248.062 327.791 254.6C312.883 261.139 294.968 264.408 274.044 264.408H205.389L233.243 237.338V324.04H171.258ZM233.243 244.4L210.489 216.546H269.729C284.114 216.546 294.968 213.538 302.291 207.522C309.614 201.245 313.276 192.614 313.276 181.63C313.276 170.383 309.614 161.752 302.291 155.737C294.968 149.721 284.114 146.713 269.729 146.713H210.489L233.243 118.859V244.4ZM429.291 273.431L425.76 204.384L526.977 98.459H595.24L497.161 203.599L462.638 238.515L429.291 273.431ZM373.974 324.04V98.459H435.175V324.04H373.974ZM528.154 324.04L451.653 229.884L492.061 186.73L600.34 324.04H528.154ZM636.222 273.431L632.691 204.384L733.908 98.459H802.171L704.092 203.599L669.569 238.515L636.222 273.431ZM580.905 324.04V98.459H642.107V324.04H580.905ZM735.085 324.04L658.584 229.884L698.992 186.73L807.271 324.04H735.085Z" fill="white"/>
<path d="M49.0391 189.154H0V504.41H49.0391V189.154Z" fill="white"/>
<path d="M49.0371 455.369V504.408H483.383V455.369H49.0371Z" fill="white"/>
<path d="M999 0H948.871V322.261H999V0Z" fill="white"/>
<path d="M949.871 50.1296V0L520.195 0V50.1296L949.871 50.1296Z" fill="white"/>
</svg>
